<?xml version="1.0" standalone="no"?><!DOCTYPE svg PUBLIC "-//W3C//DTD SVG 1.1//EN" "http://www.w3.org/Graphics/SVG/1.1/DTD/svg11.dtd"><svg t="1757741105075" class="icon" viewBox="0 0 1024 1024" version="1.1" xmlns="http://www.w3.org/2000/svg" p-id="63090" xmlns:xlink="http://www.w3.org/1999/xlink" width="200" height="200"><path d="M343.552 202.24c19.456 0 35.328 15.872 35.328 35.328 0 19.456-15.872 35.328-35.328 35.328-19.456 0-35.328-15.872-35.328-35.328 0.512-19.456 15.872-35.328 35.328-35.328zM893.44 443.904v422.912h-27.648V463.872l22.016-24.064 5.632 4.096z m-56.832 52.224v370.688H808.96v-340.48l27.648-30.208z m-56.832 62.464v308.224h-27.648V589.312l27.648-30.72z m-56.32 62.976v245.248h-27.648v-215.04l27.648-30.208z m-56.832 30.208v215.04h-27.648V632.32l27.648 19.456z m-56.832-36.864v251.904h-27.648v-230.4l27.648-21.504z m-56.832 44.032v207.872h-27.648V680.448l27.648-21.504z m-56.832 44.032v163.84H468.48V724.48l27.648-21.504z m-56.832 44.544v119.296h-27.648v-98.304l27.648-20.992z m-56.32 30.72v88.576h-27.648v-107.52l27.648 18.944z m-56.832-38.912v127.488h-27.648V720.384l27.648 18.944z m-56.832-24.064v151.552h-27.648v-135.68l27.648-15.872z m-56.832 33.28v118.272h-27.648v-102.4l27.648-15.872z m-113.664 66.56v51.712H71.68v-78.848l18.432 31.744 8.704-4.608z m-44.032-166.4l55.296 94.72 173.056-101.376 72.704 50.176 33.28 23.04 31.744-24.576 188.928-146.944 26.624 18.432 39.424 28.16 32.768-35.84L881.152 363.52l40.96 32.256 15.36-103.936 15.36-103.936-97.792 38.4-97.792 38.912 37.888 29.696-135.168 149.504L640 430.08l-33.28-23.552-32.256 25.088-189.44 146.944-68.608-47.104-28.672-19.968-30.208 17.408L54.784 648.704z m100.864 133.12v84.992H128v-69.12l27.648-15.872z m68.608-415.232l12.8-44.544 60.928-41.472 84.992 1.024 16.896 59.904 46.08 0.512 1.024 13.312-64 9.216-17.92-25.088-11.776 56.32 45.056 55.296 2.048 82.944-21.504 0.512-16.384-71.68-38.4-30.72c-11.264 17.408-25.088 55.808-25.088 55.808l-78.336 13.824-2.56-13.312 55.808-21.504 12.288-78.848 9.728-64.512-33.28 10.752-23.552 40.96-14.848-8.704z" fill="#707070" p-id="63091"></path></svg>