<?xml version="1.0" standalone="no"?><!DOCTYPE svg PUBLIC "-//W3C//DTD SVG 1.1//EN" "http://www.w3.org/Graphics/SVG/1.1/DTD/svg11.dtd"><svg t="1757756597480" class="icon" viewBox="0 0 1024 1024" version="1.1" xmlns="http://www.w3.org/2000/svg" p-id="8338" xmlns:xlink="http://www.w3.org/1999/xlink" width="210" height="210"><path d="M519.039707 231.542352s-15.060706-29.225449-16.084663-33.278613a3536.407316 3536.407316 0 0 1-9.044957-45.267447l10.068914-18.132578 22.100412-33.235948 32.126662-25.172285 8.063664-2.986542 77.351443-29.225449 7.039707-7.039707-8.020999-12.116828-11.092871-6.01575-20.265822-5.205116-50.771218-5.205117-39.465023 0.426649-27.134869 6.01575-24.105662-9.044957-30.164077-4.010499L395.439523 1.023957 373.339111 0l-37.203783 14.079413L279.903004 79.527353l-7.039707 25.172285-4.010499 22.185742-19.11387 41.256947-12.074164 39.251698-5.973084 42.32357v9.044957l-29.182785 44.286154-16.084663 33.278614V383.557352l5.034457 97.702596 9.044957 35.241198 18.089913 32.211991 23.124369 21.11912 10.026249 41.299613 38.185076 84.561809 45.224782 54.397734 2.986542 2.986542 16.084664 81.575268-55.251032 100.689138-15.060705 23.167034-14.079414 9.087622-22.100412-3.029207-13.055456 5.034457-15.060706-0.981293-10.068914 8.020999-19.071205-5.034457-19.11387-2.986542-16.084664 10.026249-4.010499 17.108621 11.092871-10.068914 17.065956-2.986543v16.084664l27.092204-6.058415 15.103371 0.981293 26.110912 6.058414s23.12437 0.981292 27.134869 0.981293c4.0105 0 28.158827 5.034457 28.158827 5.034456h18.047248l9.044956 5.034457 13.055456-2.005249 13.098121 8.063664h20.052498l4.053165-13.098121v-7.039707l13.055456 6.015749 10.026248 10.068914 6.058415 11.092871 0.981292-13.098121-7.039707-16.084663s-4.991792-9.087621-9.044956-9.087621c-4.0105 0-19.071205-5.034457-19.071205-5.034457l-11.092871 3.029207-11.007542-6.058414-12.074163 5.077122-10.026249-5.077122-4.0105-10.026249-7.039707-3.029207 6.01575-18.132578 18.089913-41.299613 24.105662-40.275655 21.11912-25.172284 8.020999-10.068914s10.068914-15.103371 10.068914-19.11387c0-4.053164 2.00525-46.334069 2.00525-46.33407l-13.055456-27.177534-6.058415-22.185742 116.560477 28.244156h7.039707l99.494521 71.463689 14.079413 18.132578 4.991792 69.458439-2.00525 16.127328-7.039706 13.098121-8.020999 8.020999-2.986543 14.122079-4.053164 7.039706-19.11387 3.029207-18.047248-6.015749-11.092871-3.029207h-21.076456l-10.068913 8.020999-4.991792 11.092871 0.981292 12.074164 6.015749-11.092871 7.039707-7.039707 6.058414-0.981292-1.023957 10.068913 7.039707 6.058415 17.065955-5.034457h8.063664l0.981293 11.092871 24.148327 2.986542 17.065955-2.986542 13.055456 4.010499 19.113871 5.034457 6.997041-0.981292 6.058415-4.0105 6.015749 19.113871 2.986542-20.137828-4.991792-24.148327-11.092871-9.087622 4.053165-15.10337-9.044957-17.108621 1.023957-63.44269 50.216575 59.432191 66.343902 52.349818s45.224782 16.084663 49.235282 16.084664c4.0105 0 35.155869-4.0105 35.155868-4.0105l20.095163-33.193284-15.060706-45.310112 6.01575-15.146035-32.169327-42.23824-68.093162-69.37311-16.297988-54.483063 1.023957-37.289113-15.10337-39.251698-17.065956-31.230698 10.026249-31.188034-8.020999-45.310112-34.259906-77.13812 12.671472-2.133244-21.247115-36.777134 13.78076-4.394484-24.276322-39.550352 10.239573-5.461106-18.217908-29.865422 5.973085-3.327861-22.015083-17.833924 8.020999-4.181159-57.256281-40.104996z" p-id="8339" fill="#38CD85"></path></svg>